# Blender v2.76 (sub 0) OBJ File: ''
# www.blender.org
mtllib debug.mtl
o Cube
v 0.000000 -1.000000 -1.000000
v 1.000000 -1.000000 1.000000
v -1.000000 -1.000000 1.000000
v 0.000000 1.000000 -1.000000
v 0.999999 1.000000 1.000001
v -1.000000 1.000000 1.000000
vn 0.894400 0.000000 -0.447200
vn -0.000000 -0.000000 1.000000
vn -0.894400 -0.000000 -0.447200
vn 0.000000 -1.000000 0.000000
vn 0.000000 1.000000 -0.000000
usemtl Material
s off
f 1//1 4//1 5//1 2//1
f 2//2 5//2 6//2 3//2
f 3//3 6//3 4//3 1//3
f 1//4 2//4 3//4
f 4//5 6//5 5//5
